# xmcd CD database file
#
# Track frame offsets:
#	150
#	15050
#	29173
#	44095
#	58880
#	73855
#	88738
#	103108
#	118813
#	131510
#	145870
#	160400
#	175765
#	192078
#	205550
#	217490
#	229587
#	247872
#	259952
#	274009
#
# Disc length: 3882 seconds
#
# Revision: 0
# Processed by: cddbd v1.5.1PL2 Copyright (c) Steve Scherf et al.
# Submitted via: CDex 1.51
#
DISCID=2e0f2814
DTITLE=Ella Fitzgerald - It's Only A Paper Moon CD2
DYEAR=2005
DGENRE=Jazz
TTITLE0=Someone to Watch Over Me
TTITLE1=Makin' Whoopee
TTITLE2=My One And Only
TTITLE3=But Not For Me
TTITLE4=How Long Has This been Going On
TTITLE5=I've Got A Crush On You
TTITLE6=Looking For A Boy
TTITLE7=Maybe
TTITLE8=Soon
TTITLE9=I'm Glad There Is You
TTITLE10=People Will Say We're In Love
TTITLE11=What Is There To Say
TTITLE12=Please Be Kind
TTITLE13=Until The Real Thing Comes Along
TTITLE14=Imagination
TTITLE15=Nice Wirk If You Can get It
TTITLE16=Star Dust
TTITLE17=My Heart Belongs To Daddy
TTITLE18=You Leave Me Creathless
TTITLE19=Baby,What Else Can I Do
EXTD=YEAR: 2005
EXTT0=
EXTT1=
EXTT2=
EXTT3=
EXTT4=
EXTT5=
EXTT6=
EXTT7=
EXTT8=
EXTT9=
EXTT10=
EXTT11=
EXTT12=
EXTT13=
EXTT14=
EXTT15=
EXTT16=
EXTT17=
EXTT18=
EXTT19=
PLAYORDER=
